<svg xmlns="http://www.w3.org/2000/svg" style="display: none;">
  <defs>
    <symbol id="Play Simple" width="42" height="42" fill="none" viewBox="0 0 42 42">
      <path fill="#898989" d="M29.018 18.91c1.257.726 1.257 2.54 0 3.265l-9.897 5.715c-1.257.726-2.828-.182-2.828-1.633V14.828c0-1.45 1.571-2.358 2.828-1.632l9.898 5.714Z"/>
    </symbol>
    <symbol id="Pause Simple" width="41" height="42" fill="none" viewBox="0 0 41 42">
      <path stroke="#898989" stroke-linecap="round" stroke-width="4.191" d="M16.626 14.97v12.574m8.382-12.574v12.574"/>
    </symbol>
    <symbol id="Next" width="42" height="42" fill="none" viewBox="0 0 42 42">
      <path stroke="#898989" stroke-linecap="round" stroke-width="2.526" d="M25.927 15.828v10.103"/>
      <path fill="#898989" d="M23.919 19.591a1.53 1.53 0 0 1 0 2.577l-7 4.49a1.53 1.53 0 0 1-2.357-1.288v-8.98c0-1.211 1.338-1.943 2.357-1.289l7 4.49Z"/>
    </symbol>
    <symbol id="Prev" width="42" height="42" fill="none" viewBox="0 0 42 42">
      <path stroke="#898989" stroke-linecap="round" stroke-width="2.526" d="M16.073 15.828v10.103"/>
      <path fill="#898989" d="M18.081 22.168a1.53 1.53 0 0 1 0-2.576l7-4.49c1.019-.655 2.358.077 2.358 1.288v8.98c0 1.21-1.339 1.942-2.358 1.289l-7-4.49Z"/>
    </symbol>
    <symbol id="Left" width="41" height="42" fill="none" viewBox="0 0 41 42">
      <path stroke="#898989" stroke-linecap="round" stroke-linejoin="round" stroke-width="2.357" d="m22.057 15.83-5.051 5.051 5.05 5.052"/>
    </symbol>
    <symbol id="Right" width="41" height="42" fill="none" viewBox="0 0 41 42">
      <path stroke="#898989" stroke-linecap="round" stroke-linejoin="round" stroke-width="2.357" d="m18.938 25.934 5.051-5.052-5.051-5.051"/>
    </symbol>
    <symbol id="Down" width="42" height="42" fill="none" viewBox="0 0 42 42">
      <path stroke="#898989" stroke-linecap="round" stroke-linejoin="round" stroke-width="2.357" d="m15.819 19.199 5.051 5.051 5.052-5.051"/>
    </symbol>
    <symbol id="Up" width="42" height="42" fill="none" viewBox="0 0 42 42">
      <path stroke="#898989" stroke-linecap="round" stroke-linejoin="round" stroke-width="2.357" d="m26.17 22.565-5.051-5.051-5.052 5.051"/>
    </symbol>
    <symbol id="Loop" width="42" height="42" fill="none" viewBox="0 0 42 42">
      <path stroke="#898989" stroke-linecap="round" stroke-linejoin="round" stroke-width="2.021" d="M16.672 27.021h-2.526a3.368 3.368 0 0 1-3.368-3.367v-6.736a3.368 3.368 0 0 1 3.368-3.367h13.47a3.368 3.368 0 0 1 3.368 3.367v6.736a3.368 3.368 0 0 1-3.368 3.367h-6.735m0 0 3.368-3.367M20.88 27.02l3.368 3.368"/>
    </symbol>
    <symbol id="Shuffle" width="42" height="42" fill="none" viewBox="0 0 42 42">
      <path stroke="#898989" stroke-linecap="round" stroke-linejoin="round" stroke-width="2.021" d="M11.027 13.55v0c1.58 0 3.057.784 3.943 2.091l.836 1.233 1.126 1.662m12.741 8.308H24.75a5.051 5.051 0 0 1-3.533-1.44l-.928-.909m9.385 2.349-3.492 3.545m3.492-3.545-3.492-3.545m-15.155 5.575v0c1.584 0 3.068-.77 3.98-2.065l6.173-8.766a5.052 5.052 0 0 1 4.13-2.143h4.363m0 0-3.492-3.545m3.492 3.545-3.492 3.545"/>
    </symbol>
    <symbol id="Close" width="41" height="42" fill="none" viewBox="0 0 41 42">
      <path stroke="#898989" stroke-linecap="round" stroke-linejoin="round" stroke-width="2.021" d="m25.43 16.078-5.052 5.052m-5.05 5.05 5.05-5.05m0 0-5.05-5.052m5.05 5.052 5.052 5.05"/>
    </symbol>
    <symbol id="Like" width="42" height="42" fill="none" viewBox="0 0 42 42">
      <path stroke="#898989" stroke-linecap="round" stroke-linejoin="round" stroke-width="2.021" d="m22.74 14.492-1.864 1.806-1.864-1.806a4.807 4.807 0 0 0-6.914.23c-1.77 1.96-2.013 4.896-.41 6.995.196.258.39.505.574.73 1.167 1.432 3.712 3.93 4.987 5.272.942.99 1.789 1.817 2.427 2.419a1.736 1.736 0 0 0 2.389-.013c1.176-1.105 2.98-2.827 4.25-4.163 1.276-1.341 2.007-2.083 3.174-3.514.184-.226.378-.473.575-.731 1.602-2.099 1.359-5.034-.411-6.994a4.808 4.808 0 0 0-6.913-.23Z"/>
    </symbol>
    <symbol id="Add" width="41" height="42" fill="none" viewBox="0 0 41 42">
      <path stroke="#898989" stroke-linecap="round" stroke-linejoin="round" stroke-width="1.684" d="M24.669 21.113h-4.313m-4.313 0h4.313m0 0v-4.312m0 4.312v4.313"/>
      <circle cx="20.373" cy="21.13" r="9.261" stroke="#898989" stroke-width="1.684"/>
    </symbol>
    <symbol id="Hide" width="42" height="42" fill="none" viewBox="0 0 42 42">
      <path stroke="#898989" stroke-width="1.684" d="M30.131 21.13c0 2.35-.874 4.492-2.315 6.125A9.26 9.26 0 0 1 11.61 21.13c0-2.372.891-4.535 2.358-6.174a9.26 9.26 0 0 1 16.164 6.174Z"/>
    </symbol>
    <symbol id="Download" width="42" height="42" fill="none" viewBox="0 0 42 42">
      <path stroke="#898989" stroke-linecap="round" stroke-linejoin="round" stroke-width="2.021" d="M21.119 16.078v9.862m0 0 3.367-3.367M21.12 25.94l-3.368-3.367"/>
      <circle cx="21.119" cy="21.13" r="9.261" stroke="#898989" stroke-width="1.684"/>
    </symbol>
    <symbol id="Lyrics" width="42" height="41" fill="none" viewBox="0 0 42 41">
      <path stroke="#898989" stroke-linecap="round" stroke-width="2" d="M11.762 14.25h12m-12 7h8m-8 7h8"/>
      <path stroke="#898989" stroke-linecap="round" stroke-linejoin="round" stroke-width="2" d="M29.762 13.25v8.934m0 0v4.665c0 .75-.533 1.4-1.283 1.401-1.481.003-3.717-.433-3.717-3.088 0-3.97 5-2.978 5-2.978Z"/>
    </symbol>
    <symbol id="Remove from Queue" width="42" height="41" fill="none" viewBox="0 0 42 41">
      <path stroke="#898989" stroke-linecap="round" stroke-linejoin="round" stroke-width="2.357" d="M12.705 23.186h16.838m-16.838 5.611h16.838"/>
      <path stroke="#898989" stroke-linecap="round" stroke-linejoin="round" stroke-width="2.021" d="m18.612 12.814 2.539 2.54m2.539 2.538-2.539-2.539m0 0 2.539-2.539m-2.539 2.54-2.539 2.538"/>
    </symbol>
    <symbol id="Add to Queue" width="41" height="41" fill="none" viewBox="0 0 41 41">
      <path stroke="#898989" stroke-linecap="round" stroke-width="2.357" d="M19.531 11.96h-4.77a2.806 2.806 0 0 0-2.807 2.807v0a2.806 2.806 0 0 0 2.806 2.807h4.771"/>
      <path stroke="#898989" stroke-linecap="round" stroke-linejoin="round" stroke-width="2.357" d="M11.954 23.186h16.838m-16.838 5.613h16.838"/>
      <path stroke="#898989" stroke-linecap="round" stroke-linejoin="round" stroke-width="2.021" d="M23.74 14.487h2.526m2.526 0h-2.526m0 0V11.96m0 2.526v2.525"/>
    </symbol>
    <symbol id="Device" width="41" height="41" fill="none" viewBox="0 0 41 41">
      <rect width="11.787" height="17.68" x="17.675" y="11.541" stroke="#898989" stroke-width="2.063" rx="2.947"/>
      <circle cx="23.568" cy="23.328" r="2.947" fill="#898989"/>
      <circle cx="23.568" cy="15.96" r="1.473" fill="#898989"/>
      <circle cx="13.255" cy="27.747" r="1.473" fill="#898989"/>
      <path stroke="#898989" stroke-linecap="round" stroke-linejoin="round" stroke-width="2.063" d="M13.992 22.59h-.737c-.814 0-1.473-.66-1.473-1.474V15.96c0-.814.66-1.474 1.473-1.474h.737"/>
    </symbol>
    <symbol id="Miniplayer" width="42" height="41" fill="none" viewBox="0 0 42 41">
      <path fill="#898989" d="M20.029 22.906c0-.93.753-1.683 1.683-1.683h7.577c.93 0 1.684.754 1.684 1.683v4.21c0 .93-.754 1.684-1.684 1.684h-7.577c-.93 0-1.683-.754-1.683-1.684v-4.21Z"/>
      <path stroke="#898989" stroke-linecap="round" stroke-linejoin="round" stroke-width="2.021" d="M17.503 27.957h-4.21c-.93 0-1.683-.754-1.683-1.684V14.486c0-.93.753-1.683 1.683-1.683h15.154c.93 0 1.684.754 1.684 1.683v4.21"/>
    </symbol>
    <symbol id="Full Screen" width="42" height="41" fill="none" viewBox="0 0 42 41">
      <g clip-path="url(#a)">
        <path stroke="#898989" stroke-linecap="round" stroke-linejoin="round" stroke-width="2.021" d="M12.46 17.734v-3.247c0-.598.484-1.083 1.082-1.083h3.247m12.989 4.33v-3.247c0-.598-.484-1.083-1.082-1.083h-3.247M12.46 23.506v3.247c0 .598.484 1.083 1.082 1.083h3.247m12.989-4.33v3.247c0 .598-.484 1.083-1.082 1.083h-3.247"/>
      </g>
      <defs>
        <clipPath id="a">
          <path fill="#fff" d="M11.016 11.96h20.205v17.319H11.016z"/>
        </clipPath>
      </defs>
    </symbol>
    <symbol id="Arrow-Left" width="42" height="41" fill="none" viewBox="0 0 42 41">
      <path stroke="#898989" stroke-linecap="round" stroke-linejoin="round" stroke-width="2.021" d="M28.458 20.628H14.146m0 0 5.893 5.893m-5.893-5.893 5.893-5.893"/>
    </symbol>
    <symbol id="Arrow-Right" width="42" height="41" fill="none" viewBox="0 0 42 41">
      <path stroke="#898989" stroke-linecap="round" stroke-linejoin="round" stroke-width="2.021" d="M14.395 20.628h14.312m0 0-5.893-5.894m5.893 5.894-5.893 5.893"/>
    </symbol>
    <symbol id="Arrow-Down" width="41" height="41" fill="none" viewBox="0 0 41 41">
      <path stroke="#898989" stroke-linecap="round" stroke-linejoin="round" stroke-width="2.021" d="M20.8 13.473v14.312m0 0 5.892-5.893M20.8 27.785l-5.893-5.893"/>
    </symbol>
    <symbol id="Arrow-Up" width="41" height="41" fill="none" viewBox="0 0 41 41">
      <path stroke="#898989" stroke-linecap="round" stroke-linejoin="round" stroke-width="2.021" d="M21.048 27.783V13.471m0 0-5.893 5.893m5.893-5.893 5.893 5.893"/>
    </symbol>
    <symbol id="Volume" width="42" height="41" fill="none" viewBox="0 0 42 41">
      <g clip-path="url(#a)">
        <path stroke="#898989" stroke-width="2.021" d="M13.526 24.242c-2.979-1.489-2.979-5.74 0-7.229l8.732-4.366a.673.673 0 0 1 .975.602v14.757c0 .5-.527.826-.975.602l-8.732-4.366Z"/>
        <path stroke="#898989" stroke-linecap="round" stroke-width="1.684" d="M27.61 25.68c.79-.215 1.52-.693 2.1-1.388.812-.972 1.268-2.29 1.268-3.664s-.456-2.692-1.268-3.663c-.58-.696-1.31-1.173-2.1-1.388"/>
        <path fill="#898989" stroke="#898989" stroke-width=".842" d="M26.769 20.117c0-.182.153-.336.322-.266a.841.841 0 0 1 0 1.556c-.169.07-.322-.084-.322-.267v-1.023Z"/>
      </g>
      <defs>
        <clipPath id="a">
          <path fill="#fff" d="M9.09 8.842h23.573v23.573H9.09z"/>
        </clipPath>
      </defs>
    </symbol>
    <symbol id="User" width="42" height="41" fill="none" viewBox="0 0 42 41">
      <path stroke="#898989" stroke-width="2.021" d="M24.492 13.891a3.368 3.368 0 1 1-6.735 0 3.368 3.368 0 0 1 6.735 0Z"/>
      <path stroke="#898989" stroke-linecap="round" stroke-linejoin="round" stroke-width="2.021" d="m14.205 22.995.75-.5a11.122 11.122 0 0 1 12.339 0l.75.5a3.367 3.367 0 0 1 1.5 2.802v1.677c0 .868-.704 1.572-1.572 1.572H14.277a1.572 1.572 0 0 1-1.572-1.572v-1.677c0-1.126.563-2.178 1.5-2.802Z"/>
    </symbol>
    <symbol id="News" width="42" height="41" fill="none" viewBox="0 0 42 41">
      <path stroke="#898989" stroke-linecap="round" stroke-linejoin="round" stroke-width="1.684" d="M28.787 24.696H13.732c-1.19 0-1.84-1.388-1.079-2.301l1.255-1.506a1.41 1.41 0 0 0 .32-.922c-.021-2.119.351-10.004 7.031-10.004s7.053 7.885 7.032 10.004a1.41 1.41 0 0 0 .32.922l1.254 1.506c.762.913.112 2.301-1.078 2.301Zm-11.036 2.806s.702 2.105 3.508 2.105c2.807 0 3.508-2.105 3.508-2.105"/>
    </symbol>
    <symbol id="Add Friend" width="42" height="42" fill="none" viewBox="0 0 42 42">
      <path stroke="#898989" stroke-width="2.021" d="M24.249 14.14a3.368 3.368 0 1 1-6.735 0 3.368 3.368 0 0 1 6.735 0Z"/>
      <path stroke="#898989" stroke-linecap="round" stroke-linejoin="round" stroke-width="2.021" d="m17.513 20.875-3.551 2.368a3.368 3.368 0 0 0-1.5 2.802v1.677c0 .868.704 1.572 1.572 1.572h12.74m-2.525-7.577h2.525m2.526 0h-2.526m0 0v-2.526m0 2.526v2.526"/>
    </symbol>
    <symbol id="Artist" width="42" height="42" fill="none" viewBox="0 0 42 42">
      <path stroke="#898989" stroke-width="2.021" d="M24.497 14.14a3.368 3.368 0 1 1-6.735 0 3.368 3.368 0 0 1 6.735 0Z"/>
      <path stroke="#898989" stroke-linecap="round" stroke-linejoin="round" stroke-width="2.021" d="m17.762 20.875-3.552 2.368a3.368 3.368 0 0 0-1.5 2.802v1.677c0 .868.704 1.572 1.572 1.572h6.848"/>
      <path stroke="#898989" stroke-linecap="round" stroke-linejoin="round" stroke-width="1.684" d="M28.707 14.139v7.577m0 0v3.763c0 .749-.534 1.402-1.282 1.379-1.239-.04-2.928-.483-2.928-2.617 0-3.367 4.21-2.525 4.21-2.525Z"/>
    </symbol>
    <symbol id="Library" width="41" height="42" fill="none" viewBox="0 0 41 42">
      <path stroke="#898989" stroke-linecap="round" stroke-linejoin="round" stroke-width="2.021" d="M11.735 12.232V29.52m5.762-17.288V29.52m5.763 0V12.231l5.762 3.99v13.297H23.26Z"/>
    </symbol>
    <symbol id="Search" width="42" height="42" fill="none" viewBox="0 0 42 42">
      <path stroke="#898989" stroke-linecap="round" stroke-width="2.021" d="M25.654 25.03a8.696 8.696 0 1 0-12.42-12.174 8.696 8.696 0 0 0 12.42 12.175Zm0 0 5.095 5.218"/>
    </symbol>
    <symbol id="Home" width="41" height="42" fill="none" viewBox="0 0 41 42">
      <path stroke="#898989" stroke-linecap="round" stroke-linejoin="round" stroke-width="2.357" d="M25.673 29.295h3.368c.93 0 1.683-.754 1.683-1.684v-7.508c0-.495-.218-.966-.596-1.286l-8.419-7.123a1.684 1.684 0 0 0-2.175 0l-8.419 7.123c-.378.32-.596.79-.596 1.286v7.508c0 .93.754 1.684 1.684 1.684h3.367"/>
    </symbol>
    <symbol id="More" width="42" height="42" fill="none" viewBox="0 0 42 42">
      <circle cx="12.7" cy="20.877" r="1.684" fill="#898989"/>
      <circle cx="21.119" cy="20.877" r="1.684" fill="#898989"/>
      <circle cx="29.538" cy="20.877" r="1.684" fill="#898989"/>
    </symbol>
    <symbol id="Album" width="42" height="42" fill="none" viewBox="0 0 42 42">
      <circle cx="20.881" cy="21.124" r="2.755" stroke="#898989" stroke-width="2.021"/>
      <path stroke="#898989" stroke-linecap="round" stroke-width="2.021" d="M20.881 31.227c-5.58 0-10.103-4.523-10.103-10.103s4.523-10.102 10.103-10.102c2.913 0 5.537 1.232 7.381 3.204"/>
      <path stroke="#898989" stroke-linecap="round" stroke-linejoin="round" stroke-width="1.684" d="M29.971 18.498v7.577m0 0v3.763c0 .75-.533 1.403-1.282 1.379-1.238-.039-2.927-.483-2.927-2.616 0-3.368 4.21-2.526 4.21-2.526Z"/>
    </symbol>
    <symbol id="Radio" width="42" height="42" fill="none" viewBox="0 0 42 42">
      <circle cx="21.13" cy="21.125" r="1.964" fill="#898989"/>
      <path stroke="#898989" stroke-linecap="round" stroke-linejoin="round" stroke-width="1.964" d="M24.53 16.639a5.446 5.446 0 0 1 2.056 4.268 5.446 5.446 0 0 1-2.056 4.269m-6.8 0a5.446 5.446 0 0 1-2.057-4.269c0-1.642.725-3.114 1.872-4.114m9.705-3.525a9.728 9.728 0 0 1 3.702 7.639 9.728 9.728 0 0 1-3.703 7.64m-12.239 0a9.728 9.728 0 0 1-.332-15.004"/>
    </symbol>
    <symbol id="Playlist" width="41" height="42" fill="none" viewBox="0 0 41 42">
      <rect width="20" height="20" stroke="#898989" stroke-linejoin="round" stroke-width="2" rx="3" transform="matrix(1 0 0 -1 10.249 32.248)"/>
      <path stroke="#898989" stroke-linejoin="round" stroke-width="1.5" d="M12.249 12.248h16a3 3 0 0 0-3-3h-10a3 3 0 0 0-3 3Z"/>
      <path stroke="#898989" stroke-linecap="round" stroke-linejoin="round" stroke-width="1.5" d="M20.761 23.204v-5.331c0-.345.28-.625.625-.625h2.117m-2.742 5.956v3.017c0 .555-.394 1.038-.948 1.026-.962-.021-2.31-.355-2.31-2.058 0-2.647 3.258-1.985 3.258-1.985Z"/>
    </symbol>
    <symbol id="Add to Playlist" width="41" height="42" fill="none" viewBox="0 0 41 42">
      <rect width="20" height="20" stroke="#898989" stroke-linejoin="round" stroke-width="2" rx="3" transform="matrix(1 0 0 -1 10.249 32.248)"/>
      <path stroke="#898989" stroke-linejoin="round" stroke-width="1.5" d="M12.249 12.248h16a3 3 0 0 0-3-3h-10a3 3 0 0 0-3 3Z"/>
      <path stroke="#898989" stroke-linecap="round" stroke-linejoin="round" stroke-width="2.021" d="M16.249 22.248h4m4 0h-4m0 0v-4m0 4v4"/>
    </symbol>
    <symbol id="Share" width="42" height="42" fill="none" viewBox="0 0 42 42">
      <path stroke="#898989" stroke-linecap="round" stroke-linejoin="round" stroke-width="2.021" d="M21.609 22.934V11.658m0 0-4.643 4.643m4.643-4.643 4.643 4.643m3.648 4.975v4.643a2.653 2.653 0 0 1-2.653 2.653H15.971a2.653 2.653 0 0 1-2.653-2.653v-4.643"/>
    </symbol>
    <symbol id="Home" width="42" height="42" fill="none" viewBox="0 0 42 42">
      <path fill="#898989" stroke="#898989" stroke-linecap="round" stroke-linejoin="round" stroke-width="2.357" d="M10.768 20.103v7.508c0 .93.753 1.684 1.683 1.684h3.368a.99.99 0 0 0 1.04-.99v-4.907c0-.926.748-1.678 1.674-1.684l4.787-.03a1.684 1.684 0 0 1 1.695 1.683v5.021c0 .501.406.907.907.907h3.367c.93 0 1.684-.754 1.684-1.684v-7.508c0-.495-.218-.966-.596-1.286l-8.42-7.123a1.684 1.684 0 0 0-2.174 0l-8.42 7.123c-.377.32-.595.79-.595 1.286Z"/>
    </symbol>
    <symbol id="Podcast" width="41" height="42" fill="none" viewBox="0 0 41 42">
      <path stroke="#898989" stroke-linecap="round" stroke-width="2.016" d="M20.099 14.695v5.93a4.447 4.447 0 1 0 8.894 0v-5.929a4.447 4.447 0 1 0-8.894 0Zm-3.953 6.425s.988 7.905 8.4 7.905m0 0c7.412 0 8.4-7.906 8.4-7.906m-8.4 7.906v3.459M7.746 15.29h5.88m-5.88 6.718h4.2m-4.2 6.721h5.88"/>
    </symbol>
    <symbol id="Audiobook" width="42" height="42" fill="none" viewBox="0 0 42 42">
      <path stroke="#898989" stroke-linecap="round" stroke-linejoin="round" stroke-width="2" d="m21.243 31.248-8.537-2.383a2 2 0 0 1-1.463-1.926V13.767a2 2 0 0 1 2.453-1.948l6 1.395a2 2 0 0 1 1.547 1.948v16.086Zm0 0 8.538-2.383a2 2 0 0 0 1.462-1.926V13.831a2 2 0 0 0-2.5-1.937l-4.7 1.214"/>
    </symbol>
    <symbol id="Save" width="41" height="42" fill="none" viewBox="0 0 41 42">
      <path stroke="#898989" stroke-width="2.32" d="M12.74 13.32v16.303a1.16 1.16 0 0 0 1.835.944l4.936-3.526a2.32 2.32 0 0 1 2.697 0l4.937 3.526a1.16 1.16 0 0 0 1.834-.944V13.32a2.32 2.32 0 0 0-2.32-2.32H15.06a2.32 2.32 0 0 0-2.32 2.32Z"/>
    </symbol>
    <symbol id="Video" width="42" height="41" fill="none" viewBox="0 0 42 41">
      <rect width="21" height="17" stroke="#898989" stroke-linejoin="round" stroke-width="2" rx="4" transform="matrix(1 0 0 -1 10.508 29.248)"/>
      <path fill="#898989" d="M18.508 18.057v5.382a.5.5 0 0 0 .724.447l5.382-2.69a.5.5 0 0 0 0-.895l-5.382-2.691a.5.5 0 0 0-.724.447Z"/>
    </symbol>
    <symbol id="Pin" width="42" height="41" fill="none" viewBox="0 0 42 41">
      <path stroke="#898989" stroke-linecap="round" stroke-linejoin="round" stroke-width="2" d="m30.245 16.593 1.518 1.518m-1.518-1.518-6.7 6.7a.78.78 0 0 0-.223.457l-.334 2.753a.779.779 0 0 1-1.324.457l-3.929-3.928m12.51-6.439-6.071-6.071m-1.518-1.518 1.518 1.518m0 0-6.7 6.7a.779.779 0 0 1-.457.223l-2.753.334a.779.779 0 0 0-.457 1.324l3.928 3.929m0 0L12.568 28.2"/>
    </symbol>
    <symbol id="Add Simple" width="41" height="42" fill="none" viewBox="0 0 41 42">
      <path stroke="#898989" stroke-linecap="round" stroke-linejoin="round" stroke-width="2.021" d="M20.627 13.985v7.144m0 7.144v-7.144m0 0h-7.144m7.144 0h7.144"/>
    </symbol>
    <symbol id="Discover" width="41" height="41" fill="none" viewBox="0 0 41 41">
      <path stroke="#898989" stroke-width="2" d="m20.508 9.196.504 1.794a13 13 0 0 0 9.002 9.002l1.794.504-1.794.504a13 13 0 0 0-9.002 9.002l-.504 1.794-.504-1.794A13 13 0 0 0 11.002 21l-1.794-.504 1.794-.504a13 13 0 0 0 9.002-9.002l.504-1.794Z"/>
    </symbol>
    <symbol id="Discover" width="42" height="41" fill="none" viewBox="0 0 42 41">
      <path fill="#898989" stroke="#898989" stroke-width="2" d="m20.757 9.196.503 1.794a13 13 0 0 0 9.003 9.002l1.794.504-1.794.504a13 13 0 0 0-9.003 9.002l-.503 1.794-.504-1.794A13 13 0 0 0 11.251 21l-1.795-.504 1.795-.504a13 13 0 0 0 9.002-9.002l.504-1.794Z"/>
    </symbol>
    <symbol id="Move" width="42" height="41" fill="none" viewBox="0 0 42 41">
      <path stroke="#898989" stroke-linecap="round" stroke-width="2" d="M11.995 14.248h18m-18 6h18m-18 6h18"/>
    </symbol>
    <symbol id="Playing" width="42" height="41" fill="none" viewBox="0 0 42 41">
      <path stroke="#898989" stroke-linecap="round" stroke-width="2" d="M14.751 27.996v-5.5m6 5.5v-14.5m6 14.5v-9"/>
    </symbol>
    <symbol id="Search" width="41" height="42" fill="none" viewBox="0 0 41 42">
      <path stroke="#898989" stroke-linecap="round" stroke-width="2.021" d="M24.906 25.03a8.696 8.696 0 1 0-12.42-12.174 8.696 8.696 0 0 0 12.42 12.175Zm0 0L30 30.249"/>
      <circle cx="18.7" cy="18.948" r="5.7" fill="#898989"/>
    </symbol>
    <symbol id="Library" width="42" height="42" fill="none" viewBox="0 0 42 42">
      <path stroke="#898989" stroke-linecap="round" stroke-linejoin="round" stroke-width="2.021" d="M12.232 12.232V29.52m5.762-17.288V29.52"/>
      <path fill="#898989" stroke="#898989" stroke-linecap="round" stroke-linejoin="round" stroke-width="2.021" d="M23.757 29.52V12.231l5.762 3.99v13.297h-5.762Z"/>
    </symbol>
    <symbol id="Save" width="42" height="42" fill="none" viewBox="0 0 42 42">
      <path fill="#898989" stroke="#898989" stroke-width="2.32" d="M12.74 13.32v16.303a1.16 1.16 0 0 0 1.835.944l4.936-3.526a2.32 2.32 0 0 1 2.697 0l4.937 3.526a1.16 1.16 0 0 0 1.834-.944V13.32a2.32 2.32 0 0 0-2.32-2.32H15.06a2.32 2.32 0 0 0-2.32 2.32Z"/>
    </symbol>
    <symbol id="Like" width="42" height="42" fill="none" viewBox="0 0 42 42">
      <path fill="#898989" stroke="#898989" stroke-linecap="round" stroke-linejoin="round" stroke-width="2.021" d="m22.988 14.492-1.864 1.806-1.863-1.806a4.808 4.808 0 0 0-6.914.23c-1.77 1.96-2.013 4.896-.41 6.995.196.258.39.505.574.73 1.167 1.432 3.712 3.93 4.987 5.272.942.99 1.789 1.817 2.427 2.419a1.736 1.736 0 0 0 2.388-.013c1.177-1.105 2.98-2.827 4.251-4.163 1.275-1.341 2.007-2.083 3.174-3.514.184-.226.378-.473.574-.731 1.603-2.099 1.36-5.034-.41-6.994a4.807 4.807 0 0 0-6.914-.23Z"/>
    </symbol>
    <symbol id="Check" width="41" height="41" fill="none" viewBox="0 0 41 41">
      <circle cx="20.757" cy="20.496" r="10.1" stroke="#898989" stroke-width="1.8"/>
    </symbol>
    <symbol id="Check" width="41" height="41" fill="none" viewBox="0 0 41 41">
      <circle cx="21.005" cy="20.496" r="11" fill="#898989"/>
      <path stroke="#000" stroke-linecap="round" stroke-linejoin="round" stroke-width="2" d="m16.757 20.996 3 3 5.5-5.5"/>
    </symbol>
    <symbol id="Folder" width="42" height="42" fill="none" viewBox="0 0 42 42">
      <path stroke="#898989" stroke-linejoin="round" stroke-width="2" d="M31.503 27.248a3 3 0 0 1-3 3h-16a3 3 0 0 1-3-3v-12.5a3 3 0 0 1 3-3h4.36a3 3 0 0 1 2.525 1.381l.345.538a3 3 0 0 0 2.525 1.381h6.245a3 3 0 0 1 3 3v9.2Z"/>
    </symbol>
    <symbol id="List" width="42" height="41" fill="none" viewBox="0 0 42 41">
      <path stroke="#898989" stroke-linecap="round" stroke-width="2" d="M17.497 14.248h12m-17.583 0h1m4.583 6h12m-17.583 0h1m4.583 6h12m-17.583 0h1"/>
    </symbol>
    <symbol id="Grid" width="42" height="41" fill="none" viewBox="0 0 42 41">
      <rect width="8.182" height="8.182" x="11.011" y="10.496" stroke="#898989" stroke-width="2" rx="2"/>
      <rect width="8.182" height="8.182" x="11.011" y="22.314" stroke="#898989" stroke-width="2" rx="2"/>
      <rect width="8.182" height="8.182" x="22.829" y="10.496" stroke="#898989" stroke-width="2" rx="2"/>
      <rect width="8.182" height="8.182" x="22.829" y="22.314" stroke="#898989" stroke-width="2" rx="2"/>
    </symbol>
    <symbol id="Karaoke" width="42" height="41" fill="none" viewBox="0 0 42 41">
      <g clip-path="url(#a)">
        <path stroke="#898989" stroke-width="1.684" d="M26.422 21.092a5.08 5.08 0 1 0-5.08-5.08m5.08 5.08a5.08 5.08 0 0 1-5.08-5.08m5.08 5.08-10.865 9.643a2.63 2.63 0 0 1-1.746.663 2.639 2.639 0 0 1-2.63-2.64c0-.635.229-1.253.644-1.733l9.517-11.013"/>
      </g>
      <defs>
        <clipPath id="a">
          <path fill="#fff" d="M9.497 9.248H33.07v23.573H9.497z"/>
        </clipPath>
      </defs>
    </symbol>
    <symbol id="Filter" width="41" height="41" fill="none" viewBox="0 0 41 41">
      <path stroke="#898989" stroke-linecap="round" stroke-width="2" d="M11.492 14.248h18m-14.492 6h10m-7 6h4"/>
    </symbol>
    <symbol id="Sort" width="42" height="41" fill="none" viewBox="0 0 42 41">
      <path stroke="#898989" stroke-linecap="round" stroke-linejoin="round" stroke-width="2.021" d="M27.643 26.973V13.697m0 0L23 18.34m4.643-4.643 4.643 4.643m-17.643-4.367v13.276m0 0 4.643-4.643m-4.643 4.643L10 22.606"/>
    </symbol>
    <symbol id="Checked" width="42" height="41" fill="none" viewBox="0 0 42 41">
      <path stroke="#898989" stroke-linecap="round" stroke-linejoin="round" stroke-width="2.02" d="m14 19.731 5.38 5.38 9.863-9.863"/>
    </symbol>
    <symbol id="Rate" width="41" height="41" fill="none" viewBox="0 0 41 41">
      <path stroke="#898989" stroke-width="2" d="M19.58 11.398c.347-.81 1.493-.81 1.84 0l1.941 4.54a1 1 0 0 0 .83.603l4.917.443c.877.08 1.231 1.17.569 1.75l-3.718 3.249a1 1 0 0 0-.317.975l1.098 4.814c.195.858-.732 1.532-1.488 1.08l-4.24-2.53a1 1 0 0 0-1.025 0l-4.239 2.53c-.755.452-1.683-.222-1.488-1.08l1.098-4.814a1 1 0 0 0-.317-.975l-3.718-3.25c-.662-.579-.308-1.67.569-1.749l4.917-.443a1 1 0 0 0 .83-.603l1.942-4.54Z"/>
    </symbol>
    <symbol id="Add to Library" width="41" height="42" fill="none" viewBox="0 0 41 42">
      <path stroke="#898989" stroke-linecap="round" stroke-linejoin="round" stroke-width="2.021" d="M11.984 20.75v8.77m5.762-8.77v8.77m5.762 0V12.231l2.881 1.995 2.881 1.995v13.297h-5.762ZM12.254 14.717h2.526m2.525 0H14.78m0 0v-2.526m0 2.526v2.526"/>
    </symbol>
    <symbol id="Upvote" width="41" height="41" fill="none" viewBox="0 0 41 41">
      <path stroke="#898989" stroke-width="2" d="M11.751 27.838V19.85c0-.874.71-1.583 1.584-1.583h1.633c.564 0 1.086-.3 1.37-.788l2.99-5.149c.814-1.399 2.954-.822 2.954.796v3.557c0 .875.71 1.584 1.584 1.584h2.122a3.168 3.168 0 0 1 3.088 3.876l-1.107 4.82a3.168 3.168 0 0 1-3.087 2.459H13.335c-.875 0-1.584-.71-1.584-1.584Z"/>
    </symbol>
    <symbol id="Downvote" width="42" height="41" fill="none" viewBox="0 0 42 41">
      <path stroke="#898989" stroke-width="2" d="M30.214 13.832v7.988c0 .874-.709 1.583-1.584 1.583h-1.632c-.564 0-1.086.3-1.37.788l-2.991 5.149c-.813 1.399-2.954.822-2.954-.796v-3.557c0-.875-.709-1.584-1.583-1.584h-2.123a3.168 3.168 0 0 1-3.087-3.876l1.107-4.82a3.168 3.168 0 0 1 3.087-2.459H28.63c.875 0 1.584.71 1.584 1.584Z"/>
    </symbol>
    <symbol id="Settings" width="42" height="41" fill="none" viewBox="0 0 42 41">
      <path stroke="#898989" stroke-width="2" d="M23.354 32h-4.232a1.07 1.07 0 0 1-.734-.275 1.087 1.087 0 0 1-.367-.688l-.339-2.557a4.32 4.32 0 0 1-.69-.33 9.214 9.214 0 0 1-.636-.412l-2.455.99c-.263.091-.527.1-.79.027a1.046 1.046 0 0 1-.62-.467l-2.089-3.548a1.012 1.012 0 0 1-.141-.77c.056-.275.198-.495.423-.66l2.117-1.567a2.565 2.565 0 0 1-.029-.372v-.743c0-.119.01-.242.029-.37l-2.117-1.568a1.052 1.052 0 0 1-.423-.66 1.012 1.012 0 0 1 .141-.77l2.088-3.548a.884.884 0 0 1 .606-.481c.274-.064.542-.05.805.042l2.455.99c.207-.147.423-.285.65-.413.225-.128.45-.238.676-.33l.339-2.557a1.09 1.09 0 0 1 .367-.688A1.07 1.07 0 0 1 19.12 10h4.233c.283 0 .527.092.734.275.207.183.33.412.367.688l.338 2.557c.245.092.476.202.692.33.216.128.428.266.635.412l2.455-.99c.263-.091.526-.1.79-.027.263.073.47.23.62.468l2.089 3.547c.15.238.197.495.14.77a1.053 1.053 0 0 1-.422.66l-2.117 1.567c.019.129.028.252.028.371v.743c0 .12-.018.243-.056.372l2.116 1.567c.226.165.367.385.424.66.056.275.009.532-.142.77l-2.088 3.52c-.15.238-.362.399-.634.482a1.274 1.274 0 0 1-.805-.015l-2.398-.99a7.717 7.717 0 0 1-.65.413 5.755 5.755 0 0 1-.677.33l-.338 2.558a1.09 1.09 0 0 1-.367.687 1.07 1.07 0 0 1-.734.275Z"/>
      <circle cx="21.238" cy="21" r="3.348" stroke="#898989" stroke-width="2"/>
    </symbol>
    <symbol id="Friends" width="41" height="41" fill="none" viewBox="0 0 41 41">
      <path stroke="#898989" stroke-width="2.021" d="M29.816 14.735a3.368 3.368 0 1 1-6.735 0 3.368 3.368 0 0 1 6.735 0Z"/>
      <path stroke="#898989" stroke-linecap="round" stroke-linejoin="round" stroke-width="2.021" d="m19.53 23.839.75-.5a11.123 11.123 0 0 1 12.338 0l.75.5a3.367 3.367 0 0 1 1.5 2.802v1.677c0 .868-.704 1.572-1.572 1.572H19.601a1.572 1.572 0 0 1-1.571-1.572V26.64c0-1.125.563-2.177 1.5-2.801Z"/>
      <path stroke="#898989" stroke-width="2.021" d="M18.397 14.735a3.368 3.368 0 1 1-6.735 0 3.368 3.368 0 0 1 6.735 0Z"/>
      <path stroke="#898989" stroke-linecap="round" stroke-linejoin="round" stroke-width="2.021" d="M15.03 21.47v0c-2.196 0-4.343.65-6.17 1.869l-.75.5a3.367 3.367 0 0 0-1.5 2.802v1.677c0 .868.704 1.572 1.572 1.572h6.061"/>
    </symbol>
    <symbol id="Off" width="42" height="42" fill="none" viewBox="0 0 42 42">
      <path stroke="#898989" stroke-linecap="round" stroke-width="2" d="M26.068 13.594a10.114 10.114 0 0 1 4.678 8.534c0 5.59-4.532 10.122-10.122 10.122s-10.121-4.532-10.121-10.122c0-3.586 1.864-6.736 4.677-8.534"/>
      <path stroke="#898989" stroke-linecap="round" stroke-linejoin="round" stroke-width="2" d="M20.848 19.37v-8.74"/>
    </symbol>
    <symbol id="Skip" width="41" height="42" fill="none" viewBox="0 0 41 42">
      <path fill="#898989" d="M20.897 19.379a1.53 1.53 0 0 1 0 2.576l-7 4.49a1.53 1.53 0 0 1-2.357-1.288v-8.98c0-1.21 1.338-1.942 2.357-1.289l7 4.49Z"/>
      <path fill="#898989" d="M30.897 19.379a1.53 1.53 0 0 1 0 2.576l-7 4.49a1.53 1.53 0 0 1-2.357-1.288v-8.98c0-1.21 1.338-1.942 2.357-1.289l7 4.49Z"/>
    </symbol>
    <symbol id="Camera" width="42" height="42" fill="none" viewBox="0 0 42 42">
      <path stroke="#898989" stroke-linecap="round" stroke-linejoin="round" stroke-width="2" d="M8.503 17.5v9.49a2.778 2.778 0 0 0 2.777 2.779h19.445a2.778 2.778 0 0 0 2.778-2.778V17.5a2.778 2.778 0 0 0-2.778-2.778h-1.45c-.534 0-1.042-.23-1.393-.632l-1.934-2.208a1.852 1.852 0 0 0-1.393-.632h-7.442c-.534 0-1.042.23-1.393.632l-1.934 2.208c-.352.402-.86.632-1.393.632H11.28A2.778 2.778 0 0 0 8.503 17.5Z"/>
      <circle cx="21.003" cy="20.971" r="4.167" stroke="#898989" stroke-width="2"/>
    </symbol>
    <symbol id="Friends" width="42" height="41" fill="none" viewBox="0 0 42 41">
      <path fill="#898989" stroke="#898989" stroke-width="2.021" d="M30.065 14.735a3.368 3.368 0 1 1-6.735 0 3.368 3.368 0 0 1 6.735 0Z"/>
      <path fill="#898989" stroke="#898989" stroke-linecap="round" stroke-linejoin="round" stroke-width="2.021" d="m19.778 23.839.75-.5a11.122 11.122 0 0 1 12.339 0l.75.5a3.367 3.367 0 0 1 1.5 2.802v1.677c0 .868-.704 1.572-1.572 1.572H19.85a1.572 1.572 0 0 1-1.572-1.572V26.64c0-1.125.563-2.177 1.5-2.801Z"/>
      <path fill="#898989" stroke="#898989" stroke-width="2.021" d="M18.646 14.735a3.368 3.368 0 1 1-6.735 0 3.368 3.368 0 0 1 6.735 0Z"/>
      <path fill="#898989" stroke="#898989" stroke-linecap="round" stroke-linejoin="round" stroke-width="2.021" d="m8.578 23.873.397-.224A12.869 12.869 0 0 1 15.278 22s-.645 2.21-.786 4c-.053.67-.059 1.51-.05 2.238.013.899-.704 1.651-1.603 1.651H8.431a1.572 1.572 0 0 1-1.571-1.571v-1.51c0-1.216.656-2.339 1.718-2.935Z"/>
    </symbol>
    <symbol id="Show" width="41" height="42" fill="none" viewBox="0 0 41 42">
      <path stroke="#898989" stroke-width="2" d="M20.724 12.886c4.386.03 7.965 3.15 10.043 5.5 1.308 1.48 1.286 3.638-.075 5.07-2.061 2.17-5.553 4.958-9.862 4.928-4.331-.03-7.875-2.894-9.963-5.096a3.712 3.712 0 0 1-.086-5.069c2.049-2.318 5.575-5.362 9.943-5.333Z"/>
      <circle cx="20.801" cy="20.6" r="4.252" fill="#898989"/>
    </symbol>
    <symbol id="Show" width="42" height="42" fill="none" viewBox="0 0 42 42">
      <path stroke="#898989" stroke-linecap="round" stroke-width="2" d="M21.073 27.667c-1.963-.013-3.759-.632-5.319-1.504m5.32 1.504v3.082m0-3.082c2.018.014 3.85-.614 5.43-1.504m6.034-5.654s-.645.993-1.804 2.24M9.51 20.35s.705 1.073 1.96 2.398m0 0-2.716 2.715m2.715-2.715c1.065 1.125 2.525 2.43 4.285 3.414m0 0-2 3.086m12.75-3.086 1.75 3.086m-1.75-3.086c1.755-.99 3.197-2.303 4.23-3.414m0 0 2.52 2.52"/>
    </symbol>
    <symbol id="History" width="42" height="41" fill="none" viewBox="0 0 42 41">
      <path stroke="#898989" stroke-linecap="round" stroke-linejoin="round" stroke-width="2" d="M21.248 15v5.555l4.684 2.89"/>
      <path stroke="#898989" stroke-width="2" d="M11.248 20c0 5.523 4.478 10 10 10 5.523 0 10-4.477 10-10s-4.477-10-10-10"/>
      <path stroke="#898989" stroke-dasharray="3 3" stroke-linejoin="round" stroke-width="2" d="M11.248 20c0-5.523 4.478-10 10-10"/>
    </symbol>
    <symbol id="Synced Lyrics" width="41" height="41" fill="none" viewBox="0 0 41 41">
      <path stroke="#898989" stroke-linecap="round" stroke-width="2" d="M11.497 13h4.657m-4.657 6.223h4.657"/>
      <path stroke="#898989" stroke-linecap="round" stroke-linejoin="round" stroke-width="2" d="M21.387 11a9.11 9.11 0 1 1 0 18.221s-5.334 0-8-4.442"/>
      <path stroke="#898989" stroke-linecap="round" stroke-linejoin="round" stroke-width="2" d="M21.593 14.557v5.554l4.683 2.89"/>
      <circle cx="20.497" cy="36" r="2" fill="#898989"/>
    </symbol>
    <symbol id="Move2" width="41" height="41" fill="none" viewBox="0 0 41 41">
      <circle cx="16.895" cy="12.9" r="1.9" fill="#898989"/>
      <circle cx="24.495" cy="12.9" r="1.9" fill="#898989"/>
      <circle cx="16.895" cy="20.5" r="1.9" fill="#898989"/>
      <circle cx="16.895" cy="28.099" r="1.9" fill="#898989"/>
      <circle cx="24.495" cy="20.5" r="1.9" fill="#898989"/>
      <circle cx="24.495" cy="28.099" r="1.9" fill="#898989"/>
    </symbol>
    <symbol id="Pin" width="41" height="41" fill="none" viewBox="0 0 41 41">
      <path stroke="#898989" stroke-linecap="round" stroke-linejoin="round" stroke-width="2" d="m29.494 16.593 1.518 1.518m-1.518-1.518-6.7 6.7a.779.779 0 0 0-.223.457l-.335 2.753a.779.779 0 0 1-1.323.457l-3.929-3.928m12.51-6.439-6.071-6.071m-1.518-1.518 1.518 1.518m0 0-6.7 6.7a.779.779 0 0 1-.458.223l-2.753.334a.779.779 0 0 0-.457 1.324l3.929 3.929m0 0L11.816 28.2"/>
    </symbol>
    <symbol id="Timer" width="42" height="42" fill="none" viewBox="0 0 42 42">
      <circle cx="20.746" cy="22" r="10.1" stroke="#898989" stroke-width="1.8"/>
      <path stroke="#898989" stroke-linecap="round" stroke-width="2" d="M20.746 15v5m4-11h-8"/>
    </symbol>
    <symbol id="Notes" width="41" height="42" fill="none" viewBox="0 0 41 42">
      <path stroke="#898989" stroke-linecap="round" stroke-width="2" d="M14.66 16.217h10.724M14.66 21.434h7.15"/>
      <path stroke="#898989" stroke-width="2" d="M9.746 24.478v-10.87A2.609 2.609 0 0 1 12.355 11h15.782a2.609 2.609 0 0 1 2.609 2.609v10.87a2.609 2.609 0 0 1-2.609 2.608h-3.285c-.793 0-1.543.36-2.038.98l-.986 1.233a1.74 1.74 0 0 1-2.717 0l-.986-1.233a2.609 2.609 0 0 0-2.038-.98h-3.732a2.609 2.609 0 0 1-2.609-2.609Z"/>
    </symbol>
    <symbol id="Translate" width="42" height="42" fill="none" viewBox="0 0 42 42">
      <path fill="#898989" d="M22.842 30.998c-.4 0-.687-.129-.862-.387-.175-.259-.196-.58-.063-.963l3.65-9.675c.1-.267.288-.496.563-.688.275-.191.562-.287.862-.287.283 0 .567.096.85.287.283.192.475.421.575.688l3.65 9.675c.133.383.113.704-.062.963-.175.258-.471.387-.888.387a.795.795 0 0 1-.5-.175 1.005 1.005 0 0 1-.325-.425l-.85-2.45h-4.85l-.875 2.45a.947.947 0 0 1-.35.425.901.901 0 0 1-.525.175Zm2.35-4.8h3.6l-1.75-4.95h-.1l-1.75 4.95Zm-8.55-8.65c.267.483.55.929.85 1.337.3.409.65.83 1.05 1.263a13.92 13.92 0 0 0 1.825-2.462c.483-.842.892-1.738 1.225-2.688h-10.1a.966.966 0 0 1-.712-.287.968.968 0 0 1-.288-.713c0-.283.096-.521.288-.713a.967.967 0 0 1 .712-.287h6v-1c0-.283.096-.521.288-.713a.967.967 0 0 1 .712-.287.97.97 0 0 1 .713.287.97.97 0 0 1 .287.713v1h6a.97.97 0 0 1 .712.287c.192.192.288.43.288.713a.968.968 0 0 1-.288.713.967.967 0 0 1-.712.287h-1.9a18.15 18.15 0 0 1-1.425 3.45 16.134 16.134 0 0 1-2.225 3.15l2.4 2.45-.75 2.05-3.1-3.1-4.3 4.3a.948.948 0 0 1-.7.275.948.948 0 0 1-.7-.275.948.948 0 0 1-.275-.7.95.95 0 0 1 .275-.7l4.35-4.35a23.192 23.192 0 0 1-1.25-1.563 12.498 12.498 0 0 1-1.025-1.662c-.183-.35-.192-.658-.025-.925s.458-.4.875-.4c.167 0 .342.054.525.162.183.109.317.238.4.388Z"/>
      <circle cx="21.243" cy="36" r="2" fill="#898989"/>
    </symbol>
    <symbol id="Translate" width="42" height="42" fill="none" viewBox="0 0 42 42">
      <path fill="#898989" d="M22.593 30.998c-.4 0-.687-.129-.862-.387-.175-.259-.196-.58-.063-.963l3.65-9.675c.1-.267.288-.496.563-.688.275-.191.562-.287.862-.287.284 0 .567.096.85.287.284.192.475.421.575.688l3.65 9.675c.134.383.113.704-.062.963-.175.258-.471.387-.888.387a.795.795 0 0 1-.5-.175 1.006 1.006 0 0 1-.325-.425l-.85-2.45h-4.85l-.875 2.45a.946.946 0 0 1-.35.425.901.901 0 0 1-.525.175Zm2.35-4.8h3.6l-1.75-4.95h-.1l-1.75 4.95Zm-8.55-8.65c.267.483.55.929.85 1.337.3.409.65.83 1.05 1.263.734-.8 1.342-1.62 1.825-2.462.484-.842.892-1.738 1.225-2.688h-10.1a.967.967 0 0 1-.712-.287.968.968 0 0 1-.288-.713c0-.283.096-.521.288-.713a.967.967 0 0 1 .712-.287h6v-1c0-.283.096-.521.288-.713a.967.967 0 0 1 .712-.287.97.97 0 0 1 .713.287.97.97 0 0 1 .287.713v1h6c.284 0 .521.096.712.287.192.192.288.43.288.713a.968.968 0 0 1-.288.713.967.967 0 0 1-.712.287h-1.9a18.15 18.15 0 0 1-1.425 3.45 16.134 16.134 0 0 1-2.225 3.15l2.4 2.45-.75 2.05-3.1-3.1-4.3 4.3a.948.948 0 0 1-.7.275.948.948 0 0 1-.7-.275.948.948 0 0 1-.275-.7.95.95 0 0 1 .275-.7l4.35-4.35a23.192 23.192 0 0 1-1.25-1.563 12.508 12.508 0 0 1-1.025-1.662c-.183-.35-.191-.658-.025-.925.167-.267.459-.4.875-.4.167 0 .342.054.525.162.184.109.317.238.4.388Z"/>
    </symbol>
    <symbol id="Notes" width="41" height="42" fill="none" viewBox="0 0 41 42">
      <path stroke="#898989" stroke-linecap="round" stroke-width="2" d="M14.91 16.217h10.723M14.91 21.434h7.148"/>
      <path stroke="#898989" stroke-width="2" d="M9.995 24.478v-10.87A2.609 2.609 0 0 1 12.603 11h15.783a2.609 2.609 0 0 1 2.609 2.609v10.87a2.609 2.609 0 0 1-2.61 2.608H25.1c-.793 0-1.543.36-2.038.98l-.986 1.233a1.74 1.74 0 0 1-2.716 0l-.986-1.233a2.608 2.608 0 0 0-2.038-.98h-3.733a2.609 2.609 0 0 1-2.608-2.609Z"/>
      <circle cx="21.243" cy="36" r="2" fill="#898989"/>
    </symbol>
    <symbol id="User" width="41" height="41" fill="none" viewBox="0 0 41 41">
      <path fill="#898989" stroke="#898989" stroke-width="2.021" d="M23.74 13.891a3.368 3.368 0 1 1-6.735 0 3.368 3.368 0 0 1 6.736 0Z"/>
      <path fill="#898989" stroke="#898989" stroke-linecap="round" stroke-linejoin="round" stroke-width="2.021" d="m13.454 22.995.75-.5a11.122 11.122 0 0 1 12.339 0l.75.5a3.368 3.368 0 0 1 1.499 2.802v1.677c0 .868-.704 1.572-1.572 1.572H13.526a1.572 1.572 0 0 1-1.572-1.572v-1.677c0-1.126.563-2.178 1.5-2.802Z"/>
    </symbol>
    <symbol id="Edit" width="42" height="42" fill="none" viewBox="0 0 42 42">
      <mask id="a" fill="#fff">
        <path d="M17.91 27.342a1 1 0 0 1-1.414 0l-2.121-2.122a1 1 0 0 1 0-1.414l13.788-13.788a2.5 2.5 0 1 1 3.536 3.535L17.91 27.342Z"/>
      </mask>
      <path stroke="#898989" stroke-width="4" d="M17.91 27.342a1 1 0 0 1-1.414 0l-2.121-2.122a1 1 0 0 1 0-1.414l13.788-13.788a2.5 2.5 0 1 1 3.536 3.535L17.91 27.342Z" mask="url(#a)"/>
      <path stroke="#E0E0E0" stroke-linecap="round" stroke-opacity=".5" stroke-width="2" d="m13.257 26.93 1.528 1.529-2.904 1.376 1.376-2.905Z"/>
    </symbol>
    <symbol id="Synced Lyrics" width="41" height="41" fill="none" viewBox="0 0 41 41">
      <path stroke="#898989" stroke-linecap="round" stroke-width="2" d="M11.253 13h4.656m-4.656 6.223h4.656"/>
      <path stroke="#898989" stroke-linecap="round" stroke-linejoin="round" stroke-width="2" d="M21.142 11a9.11 9.11 0 1 1 0 18.221s-5.333 0-8-4.442"/>
      <path stroke="#898989" stroke-linecap="round" stroke-linejoin="round" stroke-width="2" d="M21.348 14.557v5.554l4.684 2.89"/>
    </symbol>
    <symbol id="Private" width="42" height="42" fill="none" viewBox="0 0 42 42">
      <path fill="#898989" d="M25.658 13.378a.888.888 0 1 0 1.606-.756l-1.606.756ZM14.73 17.1l.876-.142v.002a.21.21 0 0 1 0-.009l-.007-.044A7.441 7.441 0 0 1 15.55 16c.006-.605.083-1.388.353-2.154.267-.76.714-1.48 1.454-2.017.738-.535 1.842-.94 3.519-.94V9.112c-1.973 0-3.462.482-4.56 1.279-1.098.795-1.73 1.849-2.088 2.865-.355 1.009-.446 2.001-.453 2.727a9.206 9.206 0 0 0 .063 1.15l.01.075.003.023.001.007v.003c0 .001.001.002.877-.14Zm6.147-6.213c1.505 0 2.546.326 3.275.777a3.932 3.932 0 0 1 1.507 1.713l1.606-.756a5.707 5.707 0 0 0-2.18-2.467c-1.062-.657-2.442-1.043-4.208-1.043v1.776Z"/>
      <path stroke="#898989" stroke-width="1.775" d="M27.089 17.545H14.663A2.663 2.663 0 0 0 12 20.208v9.32a2.663 2.663 0 0 0 2.663 2.662h12.426a2.663 2.663 0 0 0 2.663-2.663v-9.32a2.663 2.663 0 0 0-2.663-2.662Z"/>
      <circle cx="20.876" cy="25.088" r="2.663" stroke="#898989" stroke-width="1.775"/>
    </symbol>
    <symbol id="Queue" width="42" height="41" fill="none" viewBox="0 0 42 41">
      <path stroke="#898989" stroke-width="2.357" d="M12.457 14.765a2.806 2.806 0 0 1 2.806-2.806h11.225a2.806 2.806 0 1 1 0 5.613H15.263a2.806 2.806 0 0 1-2.806-2.807Z"/>
      <path stroke="#898989" stroke-linecap="round" stroke-linejoin="round" stroke-width="2.357" d="M12.457 23.186h16.838m-16.838 5.611h16.838"/>
    </symbol>
    <symbol id="Info" width="41" height="42" fill="none" viewBox="0 0 41 42">
      <path stroke="#898989" stroke-linecap="round" stroke-linejoin="round" stroke-width="1.684" d="M20.605 19.5v5.925"/>
      <path stroke="#898989" stroke-linecap="round" stroke-linejoin="round" stroke-width="2.021" d="M20.62 16.031v.038"/>
      <circle cx="20.622" cy="21.13" r="9.261" stroke="#898989" stroke-width="1.684"/>
    </symbol>
    <symbol id="Adjust" width="41" height="42" fill="none" viewBox="0 0 41 42">
      <path stroke="#898989" stroke-linecap="round" stroke-width="2" d="M20.248 14h-7a2 2 0 0 0-2 2v0a2 2 0 0 0 2 2h7"/>
      <rect width="6.231" height="6.231" x="24.018" y="13" stroke="#898989" stroke-width="2" rx="3.115"/>
      <path stroke="#898989" stroke-linecap="round" stroke-width="2" d="M21.248 28.23h7a2 2 0 0 0 2-2v0a2 2 0 0 0-2-2h-7"/>
      <rect width="6.231" height="6.231" x="17.479" y="29.23" stroke="#898989" stroke-width="2" rx="3.115" transform="rotate(-180 17.48 29.23)"/>
    </symbol>
    <symbol id="Font" width="42" height="42" fill="none" viewBox="0 0 42 42">
      <path fill="#898989" d="M12.495 28.163a1.37 1.37 0 1 1-2.583-.918l4.668-12.924A2 2 0 0 1 16.46 13h.075a2 2 0 0 1 1.88 1.32l4.658 12.898a1.391 1.391 0 1 1-2.622.931l-.738-2.115a1 1 0 0 0-.944-.67h-4.586a1 1 0 0 0-.944.67l-.744 2.129Zm3.64-10.367-1.592 4.526a.5.5 0 0 0 .472.666h2.941a.5.5 0 0 0 .471-.668l-1.61-4.524c-.075-.237-.6-.235-.682 0Zm9.671 10.727a.747.747 0 1 1-1.389-.547l2.499-6.238a1.175 1.175 0 0 1 2.182 0l2.492 6.223a.758.758 0 1 1-1.41.555l-.29-.749a.965.965 0 0 0-.9-.616H27a.965.965 0 0 0-.9.616l-.293.756Zm2-5.137L26.8 25.968h2.404l-1.02-2.582c-.045-.128-.328-.127-.377 0Z"/>
    </symbol>
    <symbol id="Private" width="41" height="42" fill="none" viewBox="0 0 41 42">
      <path stroke="#898989" stroke-width="1.775" d="M13.978 17.1S12.825 10 20.124 10c7.3 0 6.147 7.1 6.147 7.1m.066.445H13.911a2.663 2.663 0 0 0-2.662 2.663v9.32a2.663 2.663 0 0 0 2.662 2.662h12.426A2.663 2.663 0 0 0 29 29.527v-9.32a2.663 2.663 0 0 0-2.663-2.662Z"/>
      <circle cx="20.124" cy="25.088" r="2.663" stroke="#898989" stroke-width="1.775"/>
    </symbol>
    <symbol id="Dynamic" width="42" height="42" fill="none" viewBox="0 0 42 42">
      <path fill="#898989" d="M20.638 11h2.918l-2.918 9.655H24.5l-.944 2.655-2.918 8.207 2.152-8.207h-4.325L20.639 11Z"/>
      <path stroke="#898989" stroke-linecap="round" stroke-linejoin="round" stroke-width="2" d="m23.556 23.31.944-2.655h-3.862L23.556 11h-2.918l-2.173 12.31h4.325m.766 0-2.918 8.207 2.152-8.207m.766 0h-.766"/>
    </symbol>
  </defs>
</svg>
