<svg xmlns="http://www.w3.org/2000/svg" width="41" height="42" fill="none" viewBox="0 0 41 42">
  <path stroke="stroke-current" stroke-linecap="round" stroke-width="2" d="M14.91 16.217h10.723M14.91 21.434h7.148"/>
  <path stroke="stroke-current" stroke-width="2" d="M9.995 24.478v-10.87A2.609 2.609 0 0 1 12.603 11h15.783a2.609 2.609 0 0 1 2.609 2.609v10.87a2.609 2.609 0 0 1-2.61 2.608H25.1c-.793 0-1.543.36-2.038.98l-.986 1.233a1.74 1.74 0 0 1-2.716 0l-.986-1.233a2.608 2.608 0 0 0-2.038-.98h-3.733a2.609 2.609 0 0 1-2.608-2.609Z"/>
  <circle cx="21.243" cy="36" r="2" fill="stroke-current"/>
</svg>
