<svg xmlns="http://www.w3.org/2000/svg" width="42" height="41" fill="none" viewBox="0 0 42 41">
  <path stroke="stroke-current" stroke-width="2" d="M23.354 32h-4.232a1.07 1.07 0 0 1-.734-.275 1.087 1.087 0 0 1-.367-.688l-.339-2.557a4.32 4.32 0 0 1-.69-.33 9.214 9.214 0 0 1-.636-.412l-2.455.99c-.263.091-.527.1-.79.027a1.046 1.046 0 0 1-.62-.467l-2.089-3.548a1.012 1.012 0 0 1-.141-.77c.056-.275.198-.495.423-.66l2.117-1.567a2.565 2.565 0 0 1-.029-.372v-.743c0-.119.01-.242.029-.37l-2.117-1.568a1.052 1.052 0 0 1-.423-.66 1.012 1.012 0 0 1 .141-.77l2.088-3.548a.884.884 0 0 1 .606-.481c.274-.064.542-.05.805.042l2.455.99c.207-.147.423-.285.65-.413.225-.128.45-.238.676-.33l.339-2.557a1.09 1.09 0 0 1 .367-.688A1.07 1.07 0 0 1 19.12 10h4.233c.283 0 .527.092.734.275.207.183.33.412.367.688l.338 2.557c.245.092.476.202.692.33.216.128.428.266.635.412l2.455-.99c.263-.091.526-.1.79-.027.263.073.47.23.62.468l2.089 3.547c.15.238.197.495.14.77a1.053 1.053 0 0 1-.422.66l-2.117 1.567c.019.129.028.252.028.371v.743c0 .12-.018.243-.056.372l2.116 1.567c.226.165.367.385.424.66.056.275.009.532-.142.77l-2.088 3.52c-.15.238-.362.399-.634.482a1.274 1.274 0 0 1-.805-.015l-2.398-.99a7.717 7.717 0 0 1-.65.413 5.755 5.755 0 0 1-.677.33l-.338 2.558a1.09 1.09 0 0 1-.367.687 1.07 1.07 0 0 1-.734.275Z"/>
  <circle cx="21.238" cy="21" r="3.348" stroke="stroke-current" stroke-width="2"/>
</svg>
