<svg xmlns="http://www.w3.org/2000/svg" width="42" height="42" fill="none" viewBox="0 0 42 42">
  <path stroke="stroke-current" stroke-linecap="round" stroke-linejoin="round" stroke-width="2.021" d="M11.027 13.55v0c1.58 0 3.057.784 3.943 2.091l.836 1.233 1.126 1.662m12.741 8.308H24.75a5.051 5.051 0 0 1-3.533-1.44l-.928-.909m9.385 2.349-3.492 3.545m3.492-3.545-3.492-3.545m-15.155 5.575v0c1.584 0 3.068-.77 3.98-2.065l6.173-8.766a5.052 5.052 0 0 1 4.13-2.143h4.363m0 0-3.492-3.545m3.492 3.545-3.492 3.545"/>
</svg>
