<svg xmlns="http://www.w3.org/2000/svg" width="41" height="42" fill="none" viewBox="0 0 41 42">
  <rect width="20" height="20" stroke="stroke-current" stroke-linejoin="round" stroke-width="2" rx="3" transform="matrix(1 0 0 -1 10.249 32.248)"/>
  <path stroke="stroke-current" stroke-linejoin="round" stroke-width="1.5" d="M12.249 12.248h16a3 3 0 0 0-3-3h-10a3 3 0 0 0-3 3Z"/>
  <path stroke="stroke-current" stroke-linecap="round" stroke-linejoin="round" stroke-width="1.5" d="M20.761 23.204v-5.331c0-.345.28-.625.625-.625h2.117m-2.742 5.956v3.017c0 .555-.394 1.038-.948 1.026-.962-.021-2.31-.355-2.31-2.058 0-2.647 3.258-1.985 3.258-1.985Z"/>
</svg>
