<svg xmlns="http://www.w3.org/2000/svg" width="42" height="41" fill="none" viewBox="0 0 42 41">
  <path stroke="stroke-current" stroke-width="2.021" d="M24.492 13.891a3.368 3.368 0 1 1-6.735 0 3.368 3.368 0 0 1 6.735 0Z"/>
  <path stroke="stroke-current" stroke-linecap="round" stroke-linejoin="round" stroke-width="2.021" d="m14.205 22.995.75-.5a11.122 11.122 0 0 1 12.339 0l.75.5a3.367 3.367 0 0 1 1.5 2.802v1.677c0 .868-.704 1.572-1.572 1.572H14.277a1.572 1.572 0 0 1-1.572-1.572v-1.677c0-1.126.563-2.178 1.5-2.802Z"/>
</svg>
